<svg width="30" height="22" viewBox="0 0 30 22" fill="none" xmlns="http://www.w3.org/2000/svg">
<path d="M7.49902 0.327637H22.5011V21.2752H7.49902V0.327637Z" fill="white"/>
<path d="M0 0.327637H7.49897V21.2752H0V0.327637ZM22.501 0.327637H30V21.2752H22.5052L22.501 0.327637ZM9.74741 10.4496L9.15942 10.646L11.8716 12.9985C12.0787 13.5999 11.8012 13.7758 11.6232 14.0949L14.5631 13.7267L14.4928 16.652L15.1056 16.6357L14.9689 13.7308L17.9172 14.0786C17.735 13.6981 17.5735 13.4976 17.7391 12.8921L20.4472 10.6623L19.9752 10.4905C19.5859 10.1959 20.1408 9.07079 20.2236 8.3589C20.2236 8.3589 18.646 8.89487 18.5424 8.61257L18.1366 7.84749L16.6998 9.41037C16.5424 9.4472 16.4762 9.38583 16.4389 9.2549L17.1014 5.99003L16.0497 6.57509C15.9627 6.616 15.8758 6.58327 15.8178 6.48099L14.8033 4.47624L13.7598 6.55872C13.6812 6.63237 13.6025 6.64055 13.5362 6.59145L12.5342 6.03503L13.1387 9.27127C13.089 9.40219 12.9731 9.43492 12.8406 9.36537L11.4617 7.82294C11.2836 8.10933 11.1636 8.57165 10.9234 8.67803C10.6874 8.77622 9.8882 8.48164 9.35404 8.36709C9.53623 9.01761 10.1077 10.0977 9.74741 10.4537V10.4496Z" fill="#D52B1E"/>
</svg>
