<svg width="30" height="24" viewBox="0 0 30 24" fill="none" xmlns="http://www.w3.org/2000/svg">
<path fill-rule="evenodd" clip-rule="evenodd" d="M0 0.790039H30V23.0213H0V0.790039Z" fill="#6FDCFF"/>
<path fill-rule="evenodd" clip-rule="evenodd" d="M2.82185 22.4192C2.97654 22.5674 2.92498 22.8129 3.35154 22.7805C3.99841 22.7805 4.01716 22.3914 4.01716 22.1182C4.01716 21.8449 3.04685 21.4651 2.99998 21.0622C2.9531 20.6593 3.22498 20.5527 3.44998 20.5527C3.67029 20.5527 3.82498 20.6778 3.82498 20.7889C3.82498 20.9001 3.72185 20.9371 3.56248 20.9371C3.4031 20.9371 3.63279 20.8584 3.49685 20.7982C3.36091 20.738 3.27185 20.8908 3.27185 20.9835C3.27185 21.0854 3.60935 21.1131 3.83435 21.0437C3.88123 21.2614 3.89998 21.2752 3.58591 21.6458C3.81091 21.5022 3.82966 21.4698 4.0781 21.5531C3.82966 21.3401 4.01716 20.914 4.02185 20.8075C4.02654 20.7009 3.97498 20.5713 3.88123 20.5064C3.69841 20.3443 3.30935 20.3351 3.07498 20.4416C2.73279 20.5898 2.71404 21.0344 2.8031 21.1826L3.74998 22.1274C3.8156 22.2386 3.84373 22.5535 3.4406 22.5674C3.01873 22.5999 2.86873 22.0302 2.79373 21.8403C2.69529 22.0487 2.58279 22.6184 2.15623 22.586C1.7531 22.5721 1.6781 22.2618 1.74373 22.146L2.71404 21.1734C2.80779 21.0251 2.78904 20.5805 2.44685 20.4323C2.21248 20.3258 1.82341 20.3397 1.64529 20.4972C1.54216 20.562 1.48591 20.687 1.49529 20.7982C1.50466 20.9094 1.68748 21.3308 1.44373 21.5392C1.68748 21.4605 1.71091 21.4929 1.93591 21.6319C1.62185 21.266 1.64529 21.2521 1.68748 21.0298C1.91248 21.1039 2.24998 21.0761 2.24998 20.9788C2.24998 20.8816 2.15623 20.7195 2.02029 20.7843C1.88904 20.8492 2.11404 20.9279 1.95466 20.9279C1.79998 20.9279 1.68748 20.8955 1.68748 20.7889C1.68748 20.6824 1.84216 20.5435 2.06716 20.5435C2.29216 20.5435 2.55935 20.6546 2.51248 21.0576C2.4656 21.4605 1.48123 21.8959 1.48123 22.1691C1.48123 22.447 1.54685 22.7759 2.19373 22.7759C2.6156 22.8083 2.66716 22.5628 2.82185 22.4146V22.4192Z" fill="#FFE400"/>
<path fill-rule="evenodd" clip-rule="evenodd" d="M2.77034 16.6899C2.92502 16.5417 3.05159 16.1063 3.47346 16.1341C4.12034 16.1341 4.36409 16.4907 4.36409 16.764C4.36409 17.0372 3.05159 19.265 3.00471 19.6679C2.95784 20.0709 3.22971 20.182 3.45002 20.182C3.67502 20.182 3.82971 20.057 3.82971 19.9412C3.82971 19.8254 3.71721 19.8022 3.56252 19.8022C3.40784 19.8022 3.62815 19.881 3.4969 19.9412C3.36565 20.0014 3.2719 19.8486 3.2719 19.7513C3.2719 19.654 3.6094 19.6216 3.8344 19.6957C3.87659 19.478 3.89534 19.4641 3.58596 19.0936C3.81096 19.2326 3.82971 19.2696 4.07815 19.1862C3.82971 19.3993 4.01252 19.8208 4.0219 19.9273C4.03127 20.0338 3.97502 20.1681 3.87659 20.233C3.69846 20.3951 3.30471 20.3997 3.07034 20.2978C2.73284 20.145 2.71409 19.705 2.80315 19.5568L4.07815 16.8427C4.14846 16.7315 3.97034 16.361 3.56721 16.3471C3.14534 16.3147 3.00002 16.7547 2.92502 16.9446L3.50159 16.8983C3.50159 16.8983 3.52502 16.9909 3.50159 17.0465C3.30814 17.0605 3.11565 17.0852 2.92502 17.1206L2.90159 17.4077H3.18284L3.16409 17.5374C3.16409 17.5374 2.92502 17.5189 2.90159 17.5374C2.87815 17.5513 2.85471 17.8246 2.85471 17.8246C2.85471 17.8246 2.80784 17.8431 2.76096 17.8431C2.71409 17.8431 2.66721 17.8246 2.66721 17.8246C2.66721 17.8246 2.64846 17.5513 2.62502 17.5374C2.60159 17.5189 2.36252 17.5374 2.36252 17.5374L2.33909 17.4077H2.62502L2.60159 17.1206C2.60159 17.1206 2.32034 17.065 2.02502 17.0465C2.00627 16.9909 2.02502 16.9029 2.02502 16.9029L2.60159 16.9446C2.52659 16.7547 2.38127 16.3147 1.9594 16.3425C1.55627 16.361 1.37815 16.7315 1.44377 16.8427L2.71877 19.5568C2.80784 19.7003 2.78909 20.145 2.45159 20.2978C2.21721 20.3997 1.82346 20.3904 1.64534 20.233C1.5469 20.1681 1.49065 20.0384 1.50002 19.9319C1.5094 19.8254 1.68752 19.3947 1.44377 19.1909C1.69221 19.2696 1.71565 19.2372 1.93596 19.0936C1.62659 19.4641 1.64534 19.478 1.69221 19.6957C1.91252 19.6216 2.25002 19.6494 2.25002 19.7513C2.25002 19.8439 2.15627 20.006 2.02502 19.9412C1.89377 19.8763 2.11877 19.8022 1.9594 19.8022C1.80471 19.8022 1.69221 19.83 1.69221 19.9412C1.69221 20.0523 1.8469 20.182 2.06721 20.182C2.28752 20.182 2.5594 20.0709 2.51721 19.6726C2.47034 19.2696 1.15784 17.0326 1.15784 16.764C1.15784 16.4861 1.40159 16.1387 2.04846 16.1387C2.47034 16.1063 2.62502 16.5417 2.77502 16.6899H2.77034Z" fill="#FFE400"/>
<path fill-rule="evenodd" clip-rule="evenodd" d="M2.77034 15.5832C2.92502 15.7314 3.05159 16.1668 3.47346 16.139C4.12034 16.139 4.36409 15.7824 4.36409 15.5091C4.36409 15.2359 3.05159 13.0081 3.00471 12.6052C2.95784 12.2022 3.22971 12.0911 3.45002 12.0911C3.67502 12.0911 3.82971 12.2161 3.82971 12.3319C3.82971 12.4477 3.71721 12.4709 3.56252 12.4709C3.40784 12.4709 3.62815 12.3968 3.4969 12.3319C3.36565 12.2671 3.2719 12.4245 3.2719 12.5218C3.2719 12.6191 3.6094 12.6515 3.8344 12.5774C3.87659 12.7951 3.89534 12.809 3.58596 13.1795C3.81096 13.0405 3.82971 13.0035 4.07815 13.0868C3.82971 12.8738 4.01252 12.4523 4.0219 12.3458C4.03127 12.2393 3.97502 12.105 3.87659 12.0401C3.69846 11.8827 3.30471 11.8734 3.07034 11.9753C2.73284 12.1281 2.71409 12.5681 2.80315 12.7163L4.07815 15.4258C4.14846 15.5369 3.97034 15.9074 3.56721 15.9213C3.14534 15.9538 3.00002 15.5138 2.92502 15.3239L3.50159 15.3702C3.50159 15.3702 3.52502 15.2776 3.50159 15.222C3.30814 15.208 3.11565 15.1833 2.92502 15.1479L2.90159 14.8607H3.18284L3.16409 14.731C3.16409 14.731 2.92502 14.7496 2.90159 14.731C2.87815 14.7171 2.85471 14.4439 2.85471 14.4439C2.85471 14.4439 2.80784 14.4254 2.76096 14.4254C2.71409 14.4254 2.66721 14.4439 2.66721 14.4439C2.66721 14.4439 2.64846 14.7171 2.62502 14.731C2.60159 14.7496 2.36252 14.731 2.36252 14.731L2.33909 14.8607H2.62502L2.60159 15.1479C2.60159 15.1479 2.32034 15.2034 2.02502 15.222C2.00627 15.2776 2.02502 15.3655 2.02502 15.3655L2.60159 15.3239C2.52659 15.5138 2.38127 15.9538 1.9594 15.926C1.55627 15.9074 1.37815 15.5369 1.44377 15.4258L2.71877 12.7163C2.80784 12.5681 2.78909 12.1281 2.45159 11.9753C2.21721 11.8734 1.82346 11.8827 1.64534 12.0401C1.5469 12.105 1.49065 12.2347 1.50002 12.3412C1.5094 12.4477 1.68752 12.8738 1.44377 13.0822C1.69221 13.0035 1.71565 13.0359 1.93596 13.1795C1.62659 12.809 1.64534 12.7951 1.69221 12.5774C1.91252 12.6515 2.25002 12.6237 2.25002 12.5218C2.25002 12.4292 2.15627 12.2671 2.02502 12.3319C1.89377 12.3968 2.11877 12.4709 1.9594 12.4709C1.80471 12.4709 1.69221 12.4431 1.69221 12.3319C1.69221 12.2208 1.8469 12.0911 2.06721 12.0911C2.28752 12.0911 2.5594 12.2022 2.51721 12.6005C2.47034 13.0035 1.15784 15.2405 1.15784 15.5091C1.15784 15.787 1.40159 16.1344 2.04846 16.1344C2.47034 16.1668 2.62502 15.7314 2.77502 15.5832H2.77034Z" fill="#FFE400"/>
<path fill-rule="evenodd" clip-rule="evenodd" d="M2.77034 8.22844C2.92502 8.08023 3.05159 7.64487 3.47346 7.67266C4.12034 7.67266 4.36409 8.02928 4.36409 8.30254C4.36409 8.5758 3.05159 10.8036 3.00471 11.2111C2.95784 11.6094 3.22971 11.7206 3.45002 11.7206C3.67502 11.7206 3.82971 11.5955 3.82971 11.4844C3.82971 11.3732 3.71721 11.3362 3.56252 11.3362C3.40784 11.3362 3.62815 11.4195 3.4969 11.4844C3.36565 11.5492 3.2719 11.3871 3.2719 11.2899C3.2719 11.1972 3.6094 11.1602 3.8344 11.2343C3.87659 11.0166 3.89534 11.0027 3.58596 10.6322C3.81096 10.7758 3.82971 10.8082 4.07815 10.7248C3.82971 10.9379 4.01252 11.364 4.0219 11.4659C4.03127 11.5678 3.97502 11.7067 3.87659 11.7715C3.69846 11.9336 3.30471 11.9383 3.07034 11.8364C2.73284 11.6835 2.71409 11.2435 2.80315 11.0953L4.07815 8.38591C4.14846 8.27475 3.97034 7.90423 3.56721 7.89034C3.14534 7.85792 3.00002 8.29791 2.92502 8.4878L3.50159 8.44149C3.50159 8.44149 3.52502 8.53412 3.50159 8.5897C3.20159 8.60822 2.92502 8.6638 2.92502 8.6638L2.90159 8.95095H3.18284L3.16409 9.08064C3.16409 9.08064 2.92502 9.06674 2.90159 9.08064C2.87815 9.09453 2.85471 9.37242 2.85471 9.37242C2.85471 9.37242 2.80784 9.38632 2.76096 9.38632C2.71409 9.38632 2.66721 9.37242 2.66721 9.37242C2.66721 9.37242 2.64846 9.09453 2.62502 9.08064C2.60159 9.06674 2.36252 9.08064 2.36252 9.08064L2.33909 8.95095H2.62502L2.60159 8.6638C2.60159 8.6638 2.32034 8.60822 2.02502 8.5897C2.00627 8.53412 2.02502 8.44612 2.02502 8.44612L2.60159 8.4878C2.52659 8.29791 2.38127 7.85792 1.9594 7.88571C1.55627 7.90423 1.37815 8.27475 1.44377 8.38591L2.71877 11.0953C2.80784 11.2435 2.78909 11.6835 2.45159 11.8364C2.21721 11.9383 1.82346 11.929 1.64534 11.7715C1.5469 11.7067 1.49065 11.577 1.50002 11.4705C1.5094 11.364 1.68752 10.9379 1.44377 10.7295C1.69221 10.8082 1.71565 10.7758 1.93596 10.6322C1.62659 11.0027 1.64534 11.0166 1.69221 11.2343C1.91252 11.1602 2.25002 11.1926 2.25002 11.2899C2.25002 11.3825 2.15627 11.5446 2.02502 11.4798C1.89377 11.4195 2.11877 11.3408 1.9594 11.3408C1.80471 11.3408 1.69221 11.3686 1.69221 11.4798C1.69221 11.5909 1.8469 11.7206 2.06721 11.7206C2.28752 11.7206 2.5594 11.6094 2.51721 11.2111C2.47034 10.8082 1.15784 8.5758 1.15784 8.30254C1.15784 8.02928 1.40159 7.67729 2.04846 7.67729C2.47034 7.64487 2.62502 8.08023 2.77502 8.23307L2.77034 8.22844Z" fill="#FFE400"/>
<path fill-rule="evenodd" clip-rule="evenodd" d="M2.77034 7.12132C2.92502 7.26952 3.05159 7.70952 3.47346 7.6771C4.12034 7.6771 4.36409 7.32047 4.36409 7.04721C4.36409 6.77395 3.05159 4.5462 3.00471 4.14326C2.95784 3.74032 3.22971 3.62916 3.45002 3.62916C3.67502 3.62916 3.82971 3.75884 3.82971 3.87C3.82971 3.98115 3.71721 4.01358 3.56252 4.01358C3.40784 4.01358 3.62815 3.93484 3.4969 3.87C3.36565 3.80516 3.2719 3.96263 3.2719 4.05989C3.2719 4.15715 3.6094 4.18957 3.8344 4.11547C3.87659 4.33315 3.89534 4.34704 3.58596 4.71756C3.81096 4.57862 3.82971 4.54157 4.07815 4.62493C3.82971 4.41652 4.01252 3.99042 4.0219 3.88389C4.03127 3.77737 3.97502 3.64306 3.87659 3.57821C3.69846 3.42074 3.30471 3.41148 3.07034 3.518C2.73284 3.66621 2.71409 4.11084 2.80315 4.25441L4.07815 6.96848C4.14846 7.07963 3.97034 7.45015 3.56721 7.46868C3.14534 7.49647 3.00002 7.06111 2.92502 6.86658L3.50159 6.9129C3.50159 6.9129 3.52502 6.82027 3.50159 6.76469C3.30824 6.75211 3.11576 6.72892 2.92502 6.69522L2.90159 6.40343H3.18284L3.16409 6.27375C3.16409 6.27375 2.92502 6.29228 2.90159 6.27375C2.87815 6.25986 2.85471 5.9866 2.85471 5.9866C2.85471 5.9866 2.80784 5.96807 2.76096 5.96807C2.71409 5.96807 2.66721 5.9866 2.66721 5.9866C2.66721 5.9866 2.64846 6.25986 2.62502 6.27375C2.60159 6.29228 2.36252 6.27375 2.36252 6.27375L2.33909 6.40343H2.62502L2.60159 6.69522C2.60159 6.69522 2.32034 6.74616 2.02502 6.76469C2.00627 6.8249 2.02502 6.9129 2.02502 6.9129L2.60159 6.86658C2.52659 7.06111 2.38127 7.49647 1.9594 7.46868C1.55627 7.45015 1.37815 7.07963 1.44377 6.96848L2.71877 4.25441C2.80784 4.11084 2.78909 3.66621 2.45159 3.51337C2.21721 3.41148 1.82346 3.42074 1.64534 3.57821C1.5469 3.64306 1.49065 3.77274 1.50002 3.87926C1.5094 3.98579 1.68752 4.41652 1.44377 4.6203C1.69221 4.54157 1.71565 4.57399 1.93596 4.71756C1.62659 4.34704 1.64534 4.33315 1.69221 4.11547C1.91721 4.18957 2.25002 4.16178 2.25002 4.05989C2.25002 3.96726 2.15627 3.80516 2.02502 3.87C1.89377 3.93484 2.11877 4.01358 1.9594 4.01358C1.80471 4.01358 1.69221 3.98115 1.69221 3.87C1.69221 3.75884 1.8469 3.62916 2.06721 3.62916C2.28752 3.62916 2.56409 3.74032 2.51721 4.13863C2.47034 4.54157 1.15784 6.77858 1.15784 7.04721C1.15784 7.3251 1.40159 7.6771 2.04846 7.6771C2.47034 7.70952 2.62502 7.26952 2.77502 7.12132H2.77034Z" fill="#FFE400"/>
<path fill-rule="evenodd" clip-rule="evenodd" d="M2.82185 1.39201C2.97654 1.2438 2.92498 0.998328 3.35154 1.03075C3.99841 1.03075 4.01716 1.41979 4.01716 1.69305C4.01716 1.96631 3.04685 2.3461 2.99998 2.74904C2.9531 3.15198 3.22498 3.2585 3.44998 3.2585C3.67029 3.2585 3.82498 3.13345 3.82498 3.0223C3.82498 2.91114 3.72185 2.87409 3.56248 2.87409C3.4031 2.87409 3.63279 2.95282 3.49685 3.01303C3.36091 3.07324 3.27185 2.9204 3.27185 2.82777C3.27185 2.72588 3.60935 2.69346 3.83435 2.76756C3.88123 2.54988 3.89998 2.53599 3.58591 2.16547C3.81091 2.30904 3.82966 2.34146 4.0781 2.2581C3.82966 2.47115 4.01716 2.89724 4.02185 3.00377C4.02654 3.11029 3.97498 3.23998 3.88123 3.30482C3.69373 3.47618 3.30466 3.47618 3.07029 3.37429C2.7281 3.22608 2.70935 2.78146 2.79841 2.63325L3.74998 1.68379C3.8156 1.57263 3.84373 1.25769 3.4406 1.2438C3.01873 1.21138 2.86873 1.78105 2.79373 1.97094C2.69529 1.76253 2.58279 1.18822 2.15623 1.22064C1.7531 1.23453 1.6781 1.54485 1.74373 1.66063L2.71404 2.63325C2.80779 2.78146 2.78904 3.22608 2.44685 3.37429C2.21248 3.48081 1.82341 3.47155 1.64529 3.30945C1.54216 3.24461 1.48591 3.11956 1.49529 3.0084C1.50466 2.89725 1.68748 2.47578 1.44373 2.26736C1.68748 2.3461 1.71091 2.31368 1.93123 2.17473C1.62185 2.54062 1.64529 2.55451 1.68748 2.77683C1.91248 2.70272 2.24998 2.73051 2.24998 2.82777C2.24998 2.92503 2.15623 3.08714 2.02029 3.0223C1.88904 2.95745 2.11404 2.87872 1.95466 2.87872C1.79998 2.87872 1.68748 2.91114 1.68748 3.01766C1.68748 3.12419 1.84216 3.26313 2.06716 3.26313C2.29216 3.26313 2.55935 3.15198 2.51248 2.74904C2.4656 2.3461 1.48123 1.91073 1.48123 1.63748C1.48123 1.35958 1.54685 1.03075 2.19373 1.03075C2.6156 0.998328 2.66716 1.2438 2.82185 1.39201Z" fill="#FFE400"/>
<path d="M20.6961 10.3268C20.6961 8.12499 18.7899 6.34009 16.4386 6.34009C14.0872 6.34009 12.181 8.12499 12.181 10.3268C12.181 12.5286 14.0872 14.3135 16.4386 14.3135C18.7899 14.3135 20.6961 12.5286 20.6961 10.3268Z" fill="#FFE400"/>
<path fill-rule="evenodd" clip-rule="evenodd" d="M16.2385 3.96246C16.1985 3.96246 16.0084 5.28724 15.9383 5.58383C15.8683 6.25117 16.8389 6.22645 16.6788 5.55912L16.2385 3.95752V3.96246ZM16.5787 16.8049C16.6137 16.8049 16.9039 15.495 16.999 15.2033C17.114 14.5459 16.1434 14.5113 16.2485 15.1835L16.5787 16.8049ZM9.79468 10.2997C9.79468 10.3343 11.1905 10.6111 11.5007 10.7001C12.2011 10.8137 12.2511 9.90914 11.5307 10.008L9.79468 10.3046V10.2997ZM23.3877 10.4578C23.3877 10.4232 21.9769 10.1958 21.6617 10.1168C20.9563 10.0327 20.9513 10.9373 21.6617 10.8137L23.3877 10.4578ZM11.2255 6.09793C11.2005 6.12264 12.1211 7.15083 12.3062 7.40293C12.7865 7.89725 13.4218 7.20521 12.7865 6.86907L11.2255 6.10287V6.09793ZM21.7868 14.5508C21.8118 14.5261 20.8012 13.577 20.5911 13.3447C20.0658 12.8899 19.5004 13.6264 20.1608 13.9131L21.7868 14.5558V14.5508ZM13.3318 4.6644C13.3018 4.67923 13.732 5.95458 13.8021 6.25611C14.0422 6.8839 14.9127 6.47361 14.4624 5.9348L13.3368 4.6644H13.3318ZM19.4904 16.1524C19.5255 16.1376 19.1903 14.8375 19.1452 14.536C18.9501 13.8934 18.0546 14.2394 18.4598 14.8128L19.4954 16.1475L19.4904 16.1524ZM21.0063 5.55418C20.9763 5.52946 19.8657 6.37475 19.5955 6.54282C19.0602 6.9877 19.7856 7.59078 20.1558 7.00253L21.0063 5.55418ZM11.8509 15.1292C11.8759 15.1539 13.0516 14.3877 13.3318 14.2344C13.8971 13.8291 13.2217 13.1766 12.8065 13.7401L11.8559 15.1292H11.8509ZM10.0999 8.00601C10.0848 8.03566 11.3006 8.73266 11.5657 8.91556C12.1911 9.23686 12.5563 8.39652 11.8409 8.26305L10.0999 8.00601ZM22.7924 12.8701C22.8074 12.8405 21.6417 12.0644 21.3916 11.8666C20.7912 11.5009 20.3659 12.3165 21.0714 12.4944L22.7924 12.8701ZM18.76 4.32332C18.725 4.31343 18.0296 5.48003 17.8445 5.73213C17.8448 5.81264 17.8706 5.89102 17.9183 5.95628C17.9661 6.02154 18.0332 6.07041 18.1105 6.09603C18.1877 6.12165 18.2712 6.12274 18.3491 6.09915C18.427 6.07555 18.4954 6.02845 18.5449 5.96446L18.76 4.32332ZM14.0622 16.3996C14.0972 16.4144 14.8777 15.2923 15.0778 15.0501C15.443 14.4767 14.5575 14.1109 14.3924 14.7733L14.0622 16.3996ZM10.1849 12.9739C10.1999 13.0036 11.5857 12.6773 11.9109 12.6279C12.5913 12.4401 12.2111 11.6096 11.6108 11.9952L10.1849 12.9739ZM22.7974 7.89725C22.7874 7.8676 21.3816 8.09993 21.0564 8.12959C20.3559 8.27294 20.6811 9.12811 21.3065 8.78209L22.7974 7.89725Z" fill="#FFE400"/>
<path fill-rule="evenodd" clip-rule="evenodd" d="M17.6193 4.04645C17.5843 4.0415 17.114 5.30202 16.9739 5.57884C16.7688 6.22146 17.7244 6.37964 17.7093 5.69748L17.6243 4.0415L17.6193 4.04645ZM15.1929 16.6961C15.2279 16.706 15.7932 15.4751 15.9533 15.2033C16.2034 14.5804 15.2629 14.3629 15.2279 15.0401L15.1878 16.6961H15.1929ZM14.7076 4.17003C14.6725 4.17991 14.8026 5.51458 14.8026 5.82106C14.8977 6.4785 15.8332 6.25112 15.523 5.63816L14.7076 4.17003ZM18.1096 16.622C18.1446 16.617 18.1096 15.2774 18.1346 14.9709C18.0896 14.3036 17.134 14.4717 17.4042 15.1044L18.1046 16.622H18.1096ZM12.2961 5.27731C12.2661 5.29708 12.9315 6.4785 13.0566 6.76027C13.4168 7.33862 14.1923 6.79487 13.6469 6.33515L12.2961 5.27731ZM20.541 15.5542C20.571 15.5345 19.9907 14.3085 19.8906 14.0218C19.5755 13.4237 18.765 13.918 19.2703 14.4074L20.541 15.5542ZM10.5351 6.93822C10.5151 6.96788 11.5907 7.84777 11.8158 8.07516C12.3712 8.49039 12.8865 7.71925 12.2061 7.47703L10.5351 6.93822ZM22.252 13.8439C22.2721 13.8142 21.2665 12.8651 21.0563 12.6279C20.536 12.178 19.9657 12.9146 20.6261 13.2013L22.252 13.8439ZM9.76463 9.00943C9.75462 9.04403 11.0804 9.54329 11.3706 9.68665C12.041 9.90909 12.2561 9.02426 11.5257 9.00448L9.76463 9.00943ZM23.1426 11.8666C23.1576 11.8369 21.8718 11.2536 21.5916 11.0905C20.9413 10.8236 20.6561 11.6936 21.3815 11.7628L23.1426 11.8666ZM9.7196 11.5552C9.72461 11.5848 11.1555 11.5651 11.4806 11.5898C12.1911 11.5552 12.021 10.6605 11.3406 10.9027L9.7196 11.5552ZM23.2376 9.33073C23.2376 9.29613 21.8068 9.22198 21.4866 9.1775C20.7712 9.16761 20.8762 10.0722 21.5716 9.86954L23.2376 9.32579V9.33073ZM10.9453 14.1948C10.9653 14.2245 12.2461 13.6214 12.5463 13.5077C13.1666 13.1864 12.5963 12.4499 12.101 12.9492L10.9453 14.1948ZM22.0669 6.66635C22.0469 6.63669 20.7311 7.15572 20.4159 7.24964C19.7706 7.53141 20.2859 8.30255 20.8162 7.83789L22.0669 6.66635ZM13.0266 15.9447C13.0566 15.9596 13.9721 14.9314 14.2023 14.7139C14.6375 14.185 13.802 13.7252 13.5569 14.3679L13.0266 15.9447ZM20.0157 4.88185C19.9907 4.86208 19.0001 5.826 18.755 6.02867C18.2847 6.52794 19.0852 7.04203 19.3753 6.41919L20.0107 4.88185H20.0157Z" fill="#FFE400"/>
<path fill-rule="evenodd" clip-rule="evenodd" d="M9.92887 12.9784C10.0053 13.2334 10.0162 14.661 11.5557 16.0376C13.0843 17.4041 15.7047 17.71 15.7047 17.71C15.7047 17.71 15.7157 17.9037 15.53 17.9139C15.3444 17.9343 14.4491 17.761 14.0015 17.6284C13.5647 17.506 13.1717 17.2817 13.128 17.2919C13.0734 17.3123 12.986 17.4551 12.855 17.4347C12.724 17.4143 12.0907 16.8024 11.8068 16.6393C11.239 16.1809 10.7364 15.6566 10.311 15.0791C10.0053 14.6202 9.92887 14.3143 9.8306 14.3143C9.73234 14.3143 9.37202 14.5386 9.37202 14.5386C9.37202 14.5386 9.04447 14.0797 8.76059 13.3455C8.46579 12.6113 8.49855 12.183 8.56406 12.1524C8.64049 12.1218 8.64049 12.6929 8.85885 13.213C9.07722 13.7432 9.38294 13.9064 9.38294 13.9064C9.38294 13.9064 9.18641 13.6311 9.03355 12.9478C8.88069 12.2646 8.81518 11.6018 8.92437 11.3978C9.03355 11.1939 9.13182 11.1327 9.14274 11.1429C9.16457 11.1633 8.95712 11.459 9.09906 12.2442C9.241 13.0294 9.62315 13.6922 9.7105 13.6616C9.79785 13.6311 9.65591 13.4679 9.60131 13.009C9.54672 12.5501 9.65591 12.2646 9.77601 12.2238C9.8306 12.183 9.91795 12.7337 9.92887 12.9784ZM8.85885 14.2837C8.56406 14.0288 8.10548 13.1416 8.00722 13.1824C7.89803 13.2334 8.74967 14.508 8.77151 14.61C8.79335 14.7324 8.97896 15.0791 8.83702 15.0281C8.69508 14.9771 7.67966 13.9778 7.79976 14.1715C7.91987 14.3653 8.68416 15.2422 8.64049 15.2932C8.59681 15.3442 8.00721 14.8037 7.98538 14.8751C7.97446 14.9363 8.56406 15.4666 8.55314 15.5278C8.54222 15.5889 8.17099 15.1912 8.17099 15.2728C8.17099 15.3544 8.55314 15.7521 8.55314 15.8133C8.55314 15.8745 8.22558 15.5278 8.33477 15.7113C8.43304 15.9153 8.71692 16.0886 8.706 16.1498C8.69508 16.211 8.46579 16.0682 8.46579 16.0988C8.46579 16.1294 8.89161 16.2722 8.98988 16.3843C9.09906 16.4965 9.79785 17.2511 10.3219 17.6284C10.846 18.0057 12.3528 18.6685 12.462 18.6685C12.5602 18.6685 12.7131 18.4646 12.6803 18.383C12.6476 18.3014 11.1736 17.8324 10.7696 17.4856C10.3547 17.1389 9.35019 16.3028 9.26284 16.262C9.18641 16.211 8.95712 16.2314 8.95712 16.1804C8.95712 16.1294 9.25192 16.211 9.23009 16.1804C9.21917 16.1498 8.8261 15.9866 8.83702 15.956C8.85886 15.9255 9.10998 16.0172 9.10998 15.9866C9.10998 15.956 8.65141 15.7215 8.67324 15.6705C8.68416 15.6195 9.01172 15.8133 9.01172 15.7725C9.01172 15.7521 8.57497 15.4666 8.58589 15.4156C8.59681 15.3646 8.92437 15.6399 8.91345 15.5787C8.90253 15.5176 8.6514 15.1709 8.6514 15.1301C8.6514 15.0791 9.04447 15.4768 9.08814 15.3952C9.10998 15.3238 8.94621 14.661 8.95712 14.6508C8.96804 14.6406 9.25192 14.7935 9.29559 14.7018C9.35019 14.5998 9.09906 14.4672 8.85885 14.2837ZM13.8923 19.3008C13.6848 19.3314 13.5866 19.26 13.7067 19.0968C13.8704 19.0968 14.3072 18.9643 14.46 18.9031C14.6129 18.8419 14.7767 18.7603 14.9077 18.6481C15.0387 18.5156 15.1261 18.7195 15.0496 18.8317C14.995 18.9031 14.7439 19.0356 14.5583 19.107C14.2853 19.1886 14.0451 19.311 13.8923 19.3008ZM15.2571 18.7807C15.1151 18.6379 15.2352 18.536 15.4427 18.4238C15.7484 18.2708 15.6611 18.0567 16.0541 17.8833C16.2288 17.7814 18.6746 16.8636 19.4716 16.3741C20.2687 15.8847 22.507 14.3041 23.1075 13.213C23.6971 12.132 23.4132 12.0505 23.5005 12.0097C23.577 11.9587 23.6643 12.1626 23.6534 12.4074C23.6316 12.6419 23.435 13.3557 23.5005 13.4271C23.566 13.4985 24.3958 12.8663 24.7452 12.1015C25.0946 11.3367 25.3567 10.5413 25.5205 10.5413C25.6951 10.5413 25.2366 11.8465 24.9418 12.3564C24.6579 12.8663 24.3194 13.1212 24.3959 13.2334C24.4832 13.3353 25.3348 12.6725 25.6296 12.183C25.9135 11.6834 26.1865 11.2449 26.2411 11.3367C26.1542 11.934 25.9021 12.4999 25.5095 12.9784C25.051 13.4679 24.505 13.8248 24.5924 13.8962C24.6688 13.9778 25.2912 14.0593 25.9354 13.6514C26.5905 13.2334 26.656 12.6317 26.7324 12.6623C26.8198 12.6929 26.656 13.5189 26.0336 14.0288C25.4113 14.5386 24.5924 14.5896 24.6142 14.7018C24.6579 14.8037 26.3939 14.2327 26.3612 14.3653C26.3284 14.4876 24.112 15.3034 24.0901 15.385C24.0901 15.4462 24.4723 15.4666 25.0728 15.334C25.6624 15.2116 26.2302 14.7732 26.3066 14.8751C26.3284 15.0179 25.8808 15.3646 25.2038 15.5278C24.516 15.6909 24.1775 15.9051 24.1556 15.956C24.1447 16.007 25.3785 15.8133 25.3785 15.8745C25.3785 15.9357 23.7626 16.2314 23.7517 16.313C23.7298 16.3843 25.2802 16.0172 25.2584 16.109C25.2147 16.1804 23.1511 16.7514 23.173 16.782C23.1839 16.8228 24.8981 16.4353 24.8653 16.4965C24.8217 16.5679 21.9829 17.3123 21.961 17.3633C21.9392 17.4041 24.4723 16.833 24.4504 16.884C24.4286 16.935 23.1402 17.2307 23.1402 17.2613C23.1402 17.2919 24.1775 17.1083 24.1556 17.1593C24.1447 17.2001 21.5352 17.8222 21.4806 17.9139C21.426 18.0159 22.8345 17.659 22.8127 17.8426C22.7908 18.0261 19.7883 18.9643 19.7773 18.7909C19.7555 18.6176 21.6007 18.1791 21.5898 18.1281C21.568 18.0771 20.5307 18.2301 20.5089 18.1383C20.498 18.0363 21.1967 17.8324 21.1421 17.7916C21.0876 17.7406 20.5635 17.9343 20.6071 17.8222C20.6617 17.71 21.6553 17.2817 21.6335 17.2511C21.6226 17.2205 21.2732 17.3531 21.3059 17.2511C21.3496 17.1389 23.4569 16.5679 23.4241 16.4965C23.3914 16.4353 22.4524 16.6393 22.365 16.6597C22.3323 16.5985 23.6752 16.1294 23.6534 16.0478C23.6097 15.9764 22.9328 16.3232 22.8891 16.2314C22.8673 16.1294 24.0792 15.6909 24.0028 15.6195C23.9264 15.5482 23.3804 15.8031 23.304 15.7317C23.2276 15.6603 24.4504 14.8751 24.2648 14.8547C24.0792 14.8445 23.8499 15.0995 23.8281 14.9363C23.8499 14.7324 24.778 14.3959 24.5705 14.2327C24.243 14.1409 23.1402 14.3041 22.6816 14.559C22.2231 14.8139 20.6945 16.2314 20.3233 16.4557C19.952 16.6699 18.6855 17.1695 18.4453 17.2715C18.0741 17.3939 18.0085 17.5774 17.6264 17.761C16.9385 17.9343 16.9494 18.1281 16.6219 18.2403C16.5018 18.2708 15.268 18.8215 15.2571 18.7807ZM13.532 19.4945C13.3245 19.5965 13.1389 19.8412 13.259 19.9432C13.3245 20.0656 13.532 19.6679 13.6957 19.6883L14.5692 19.7291C15.0387 19.7597 15.268 19.6373 15.53 19.6577C15.7921 19.6781 16.3708 19.5251 16.6437 19.5251C16.9167 19.5251 16.9713 19.5557 16.9931 19.4435C17.0259 19.3416 16.1415 19.4129 15.7484 19.4027C15.3554 19.3824 14.864 19.4741 14.5692 19.4741C14.2963 19.4639 13.8268 19.3824 13.532 19.4945Z" fill="#FFE400"/>
<path d="M14.8422 19.3724C14.8422 19.288 14.7591 19.2195 14.6566 19.2195C14.554 19.2195 14.4709 19.288 14.4709 19.3724C14.4709 19.4569 14.554 19.5254 14.6566 19.5254C14.7591 19.5254 14.8422 19.4569 14.8422 19.3724Z" fill="#FFE400"/>
<path fill-rule="evenodd" clip-rule="evenodd" d="M19.1986 19.0765C19.3842 19.0459 19.8865 19.2091 20.2359 19.2805C20.8691 19.515 22.0483 19.4028 22.0483 19.515C22.0483 19.6272 21.9719 19.7598 21.6989 19.7801C21.426 19.8005 20.7381 19.6782 20.7599 19.6782C20.7818 19.6782 21.3059 19.9127 21.153 19.9739C21.0002 20.0351 20.5525 19.8413 20.4761 19.8923C20.3996 19.9433 20.891 20.0351 20.8036 20.0657C20.7381 20.0963 20.3996 20.0249 20.2905 20.0351C20.1813 20.0555 20.3778 20.1676 20.2468 20.2084C20.1158 20.2594 19.8974 20.1473 19.81 20.1778C19.7118 20.2084 20.0066 20.3818 19.8756 20.4022C19.7445 20.4226 19.4388 20.3206 19.2641 20.3002C19.0894 20.3002 19.4279 20.4634 19.3187 20.4838C19.2095 20.494 18.9038 20.3512 18.8274 20.3512C18.7509 20.3512 18.8274 20.5551 18.7182 20.5551C18.609 20.5551 18.478 20.3818 18.4125 20.3818C18.347 20.3818 18.4125 20.5857 18.3033 20.5857C18.1941 20.5857 18.1504 20.3716 18.0631 20.3818C17.9539 20.4022 18.0631 20.6571 17.9102 20.6367C17.7683 20.6265 17.7464 20.3716 17.6263 20.3818C17.5172 20.4022 17.6482 20.6367 17.539 20.6367C17.4298 20.6367 17.408 20.4022 17.2988 20.3818C17.1896 20.3716 17.2333 20.6061 17.1678 20.6061C17.1023 20.6061 17.0367 20.3818 16.9931 20.3818C16.9603 20.3818 16.9931 20.6061 16.8621 20.5857C16.731 20.5653 16.731 20.341 16.6983 20.3512C16.6546 20.3716 16.6546 20.5347 16.5673 20.5347C16.4799 20.5347 16.469 20.3716 16.4362 20.392C16.3926 20.4022 16.2615 20.6061 16.1742 20.5755C16.0759 20.5449 16.196 20.3818 16.1524 20.3818C16.1087 20.3818 15.9995 20.494 15.934 20.4838C15.8685 20.4736 15.934 20.341 15.9121 20.341C15.8903 20.341 15.7265 20.4226 15.6501 20.4226C15.5737 20.4226 15.3662 20.5246 15.3116 20.4328C15.257 20.3308 15.4536 20.3308 15.4972 20.239C15.53 20.1473 15.3881 19.8719 15.5409 19.7801C15.6829 19.6782 16.1524 19.9127 16.8511 19.7496C18.1177 19.4334 19.1003 19.0663 19.1986 19.0765Z" fill="#FFE400"/>
</svg>
