<svg width="32" height="20" viewBox="0 0 32 20" fill="none" xmlns="http://www.w3.org/2000/svg">
<g clip-path="url(#clip0_1_87944)">
<path fill-rule="evenodd" clip-rule="evenodd" d="M10.7022 7.65988C10.5525 7.80927 10.3495 7.89316 10.138 7.89316C9.92648 7.89316 9.72357 7.80927 9.5738 7.65988L5.99696 4.08409C5.92267 4.00989 5.86374 3.92178 5.82353 3.82478C5.78333 3.72779 5.76263 3.62383 5.76263 3.51883C5.76263 3.41383 5.78333 3.30987 5.82353 3.21287C5.86374 3.11588 5.92267 3.02777 5.99696 2.95357L9.5738 -0.621171C9.64789 -0.695267 9.73585 -0.754043 9.83266 -0.794144C9.92947 -0.834244 10.0332 -0.854884 10.138 -0.854884C10.2428 -0.854884 10.3466 -0.834244 10.4434 -0.794144C10.5402 -0.754043 10.6281 -0.695267 10.7022 -0.621171L14.2791 2.95357C14.3533 3.02777 14.4123 3.11588 14.4525 3.21287C14.4927 3.30987 14.5134 3.41383 14.5134 3.51883C14.5134 3.62383 14.4927 3.72779 14.4525 3.82478C14.4123 3.92178 14.3533 4.00989 14.2791 4.08409L10.7022 7.65988ZM8.72643 9.63672L5.15064 13.2125C5.07658 13.2871 4.98851 13.3462 4.8915 13.3866C4.79449 13.4269 4.69046 13.4477 4.58538 13.4477C4.48031 13.4477 4.37627 13.4269 4.27926 13.3866C4.18225 13.3462 4.09418 13.2871 4.02012 13.2125L0.444328 9.63672C0.294621 9.48691 0.210526 9.28378 0.210526 9.07199C0.210526 8.86019 0.294621 8.65707 0.444328 8.50725L4.02012 4.93041C4.09432 4.85612 4.18243 4.79719 4.27943 4.75698C4.37642 4.71678 4.48038 4.69608 4.58538 4.69608C4.69038 4.69608 4.79434 4.71678 4.89133 4.75698C4.98833 4.79719 5.07644 4.85612 5.15064 4.93041L8.72643 8.50725C8.87614 8.65707 8.96023 8.86019 8.96023 9.07199C8.96023 9.28378 8.87614 9.48691 8.72643 9.63672ZM11.5506 9.63672C11.4009 9.48691 11.3168 9.28378 11.3168 9.07199C11.3168 8.86019 11.4009 8.65707 11.5506 8.50725L15.1264 4.93041C15.2006 4.85612 15.2887 4.79719 15.3857 4.75698C15.4827 4.71678 15.5867 4.69608 15.6917 4.69608C15.7967 4.69608 15.9007 4.71678 15.9977 4.75698C16.0946 4.79719 16.1828 4.85612 16.257 4.93041L19.8317 8.50725C19.9059 8.58136 19.9649 8.66939 20.0051 8.76629C20.0452 8.8632 20.0659 8.96708 20.0659 9.07199C20.0659 9.1769 20.0452 9.28078 20.0051 9.37768C19.9649 9.47459 19.9059 9.56261 19.8317 9.63672L16.257 13.2125C16.1829 13.2871 16.0948 13.3462 15.9978 13.3866C15.9008 13.4269 15.7968 13.4477 15.6917 13.4477C15.5866 13.4477 15.4826 13.4269 15.3856 13.3866C15.2886 13.3462 15.2005 13.2871 15.1264 13.2125L11.5506 9.63672ZM14.2791 15.1894L10.7033 18.7651C10.6291 18.8394 10.541 18.8984 10.444 18.9386C10.347 18.9788 10.243 18.9995 10.138 18.9995C10.033 18.9995 9.92905 18.9788 9.83206 18.9386C9.73507 18.8984 9.64695 18.8394 9.57275 18.7651L5.99801 15.1894C5.92376 15.1152 5.86485 15.0272 5.82466 14.9303C5.78446 14.8334 5.76377 14.7295 5.76377 14.6246C5.76377 14.5197 5.78446 14.4158 5.82466 14.3189C5.86485 14.222 5.92376 14.134 5.99801 14.0599L9.57275 10.4841C9.72274 10.3343 9.92605 10.2502 10.138 10.2502C10.35 10.2502 10.5533 10.3343 10.7033 10.4841L14.2791 14.0609C14.4288 14.2107 14.5129 14.4139 14.5129 14.6257C14.5129 14.8375 14.4288 15.0395 14.2791 15.1894ZM17.1033 2.95357L20.6791 -0.621171C20.7531 -0.69555 20.8411 -0.754571 20.938 -0.794844C21.0349 -0.835117 21.1389 -0.855849 21.2438 -0.855849C21.3488 -0.855849 21.4527 -0.835117 21.5496 -0.794844C21.6465 -0.754571 21.7345 -0.69555 21.8085 -0.621171L25.3854 2.95357C25.5351 3.10338 25.6192 3.30651 25.6192 3.5183C25.6192 3.7301 25.5351 3.93323 25.3854 4.08304L21.8085 7.65988C21.6586 7.80933 21.4555 7.89325 21.2438 7.89325C21.0321 7.89325 20.829 7.80933 20.6791 7.65988L17.1033 4.08304C16.9536 3.93323 16.8695 3.7301 16.8695 3.5183C16.8695 3.30651 16.9536 3.10338 17.1033 2.95357ZM22.6559 8.50725L26.2317 4.93146C26.3058 4.85692 26.3938 4.79777 26.4908 4.7574C26.5878 4.71704 26.6919 4.69626 26.797 4.69626C26.902 4.69626 27.0061 4.71704 27.1031 4.7574C27.2001 4.79777 27.2882 4.85692 27.3622 4.93146L30.937 8.50725C31.0867 8.65707 31.1708 8.86019 31.1708 9.07199C31.1708 9.28378 31.0867 9.48691 30.937 9.63672L27.3612 13.2125C27.287 13.2868 27.1989 13.3457 27.1019 13.3859C27.0049 13.4261 26.9009 13.4468 26.7959 13.4468C26.6909 13.4468 26.5869 13.4261 26.49 13.3859C26.393 13.3457 26.3048 13.2868 26.2306 13.2125L22.6549 9.63672C22.5051 9.48691 22.4211 9.28378 22.4211 9.07199C22.4211 8.86019 22.5062 8.65707 22.6559 8.50725ZM20.6791 10.4841C20.8289 10.3344 21.032 10.2503 21.2438 10.2503C21.4556 10.2503 21.6587 10.3344 21.8085 10.4841L25.3854 14.0599C25.5348 14.2098 25.6187 14.4129 25.6187 14.6246C25.6187 14.8363 25.5348 15.0394 25.3854 15.1894L21.8085 18.7662C21.6587 18.9159 21.4556 19 21.2438 19C21.032 19 20.8289 18.9159 20.6791 18.7662L17.1033 15.1894C16.9536 15.0395 16.8695 14.8364 16.8695 14.6246C16.8695 14.4128 16.9536 14.2097 17.1033 14.0599L20.6791 10.4841Z" fill="#E6C3A5"/>
</g>
<defs>
<clipPath id="clip0_1_87944">
<rect width="20" height="32" fill="white" transform="matrix(0 -1 1 0 0 20)"/>
</clipPath>
</defs>
</svg>
