<svg width="30" height="22" viewBox="0 0 30 22" fill="none" xmlns="http://www.w3.org/2000/svg">
<path fill-rule="evenodd" clip-rule="evenodd" d="M0 0.703125H30V21.8757H0V0.703125Z" fill="url(#paint0_linear_3_1064)"/>
<path fill-rule="evenodd" clip-rule="evenodd" d="M0 0.703125H30V2.11463H0V0.703125ZM0 3.52614H30V4.93764H0V3.52614ZM0 6.34915H30V7.76066H0V6.34915ZM0 9.17216H30V10.5837H0V9.17216ZM0 11.9952H30V13.4067H0V11.9952ZM0 14.8182H30V16.2297H0V14.8182ZM0 17.6412H30V19.0527H0V17.6412ZM0 20.4642H30V21.8757H0V20.4642Z" fill="url(#paint1_linear_3_1064)"/>
<path fill-rule="evenodd" clip-rule="evenodd" d="M0 0.703125H12.8571V10.5837H0V0.703125Z" fill="url(#paint2_linear_3_1064)"/>
<path fill-rule="evenodd" clip-rule="evenodd" d="M2.14287 3.52601C1.74839 3.52601 1.42859 3.21003 1.42859 2.82026C1.42859 2.43048 1.74839 2.1145 2.14287 2.1145C2.53736 2.1145 2.85716 2.43048 2.85716 2.82026C2.85716 3.21003 2.53736 3.52601 2.14287 3.52601ZM5.00002 3.52601C4.60553 3.52601 4.28573 3.21003 4.28573 2.82026C4.28573 2.43048 4.60553 2.1145 5.00002 2.1145C5.39451 2.1145 5.7143 2.43048 5.7143 2.82026C5.7143 3.21003 5.39451 3.52601 5.00002 3.52601ZM7.85716 3.52601C7.46267 3.52601 7.14287 3.21003 7.14287 2.82026C7.14287 2.43048 7.46267 2.1145 7.85716 2.1145C8.25165 2.1145 8.57145 2.43048 8.57145 2.82026C8.57145 3.21003 8.25165 3.52601 7.85716 3.52601ZM10.7143 3.52601C10.3198 3.52601 10 3.21003 10 2.82026C10 2.43048 10.3198 2.1145 10.7143 2.1145C11.1088 2.1145 11.4286 2.43048 11.4286 2.82026C11.4286 3.21003 11.1088 3.52601 10.7143 3.52601ZM3.57145 4.93752C3.17696 4.93752 2.85716 4.62154 2.85716 4.23176C2.85716 3.84198 3.17696 3.52601 3.57145 3.52601C3.96593 3.52601 4.28573 3.84198 4.28573 4.23176C4.28573 4.62154 3.96593 4.93752 3.57145 4.93752ZM6.42859 4.93752C6.0341 4.93752 5.7143 4.62154 5.7143 4.23176C5.7143 3.84198 6.0341 3.52601 6.42859 3.52601C6.82308 3.52601 7.14287 3.84198 7.14287 4.23176C7.14287 4.62154 6.82308 4.93752 6.42859 4.93752ZM9.28573 4.93752C8.89124 4.93752 8.57145 4.62154 8.57145 4.23176C8.57145 3.84198 8.89124 3.52601 9.28573 3.52601C9.68022 3.52601 10 3.84198 10 4.23176C10 4.62154 9.68022 4.93752 9.28573 4.93752ZM10.7143 6.34902C10.3198 6.34902 10 6.03305 10 5.64327C10 5.25349 10.3198 4.93752 10.7143 4.93752C11.1088 4.93752 11.4286 5.25349 11.4286 5.64327C11.4286 6.03305 11.1088 6.34902 10.7143 6.34902ZM7.85716 6.34902C7.46267 6.34902 7.14287 6.03305 7.14287 5.64327C7.14287 5.25349 7.46267 4.93752 7.85716 4.93752C8.25165 4.93752 8.57145 5.25349 8.57145 5.64327C8.57145 6.03305 8.25165 6.34902 7.85716 6.34902ZM5.00002 6.34902C4.60553 6.34902 4.28573 6.03305 4.28573 5.64327C4.28573 5.25349 4.60553 4.93752 5.00002 4.93752C5.39451 4.93752 5.7143 5.25349 5.7143 5.64327C5.7143 6.03305 5.39451 6.34902 5.00002 6.34902ZM2.14287 6.34902C1.74839 6.34902 1.42859 6.03305 1.42859 5.64327C1.42859 5.25349 1.74839 4.93752 2.14287 4.93752C2.53736 4.93752 2.85716 5.25349 2.85716 5.64327C2.85716 6.03305 2.53736 6.34902 2.14287 6.34902ZM3.57145 7.76053C3.17696 7.76053 2.85716 7.44455 2.85716 7.05477C2.85716 6.665 3.17696 6.34902 3.57145 6.34902C3.96593 6.34902 4.28573 6.665 4.28573 7.05477C4.28573 7.44455 3.96593 7.76053 3.57145 7.76053ZM6.42859 7.76053C6.0341 7.76053 5.7143 7.44455 5.7143 7.05477C5.7143 6.665 6.0341 6.34902 6.42859 6.34902C6.82308 6.34902 7.14287 6.665 7.14287 7.05477C7.14287 7.44455 6.82308 7.76053 6.42859 7.76053ZM9.28573 7.76053C8.89124 7.76053 8.57145 7.44455 8.57145 7.05477C8.57145 6.665 8.89124 6.34902 9.28573 6.34902C9.68022 6.34902 10 6.665 10 7.05477C10 7.44455 9.68022 7.76053 9.28573 7.76053ZM10.7143 9.17203C10.3198 9.17203 10 8.85606 10 8.46628C10 8.0765 10.3198 7.76053 10.7143 7.76053C11.1088 7.76053 11.4286 8.0765 11.4286 8.46628C11.4286 8.85606 11.1088 9.17203 10.7143 9.17203ZM7.85716 9.17203C7.46267 9.17203 7.14287 8.85606 7.14287 8.46628C7.14287 8.0765 7.46267 7.76053 7.85716 7.76053C8.25165 7.76053 8.57145 8.0765 8.57145 8.46628C8.57145 8.85606 8.25165 9.17203 7.85716 9.17203ZM5.00002 9.17203C4.60553 9.17203 4.28573 8.85606 4.28573 8.46628C4.28573 8.0765 4.60553 7.76053 5.00002 7.76053C5.39451 7.76053 5.7143 8.0765 5.7143 8.46628C5.7143 8.85606 5.39451 9.17203 5.00002 9.17203ZM2.14287 9.17203C1.74839 9.17203 1.42859 8.85606 1.42859 8.46628C1.42859 8.0765 1.74839 7.76053 2.14287 7.76053C2.53736 7.76053 2.85716 8.0765 2.85716 8.46628C2.85716 8.85606 2.53736 9.17203 2.14287 9.17203Z" fill="url(#paint3_linear_3_1064)"/>
<defs>
<linearGradient id="paint0_linear_3_1064" x1="315" y1="0.703125" x2="315" y2="318.292" gradientUnits="userSpaceOnUse">
<stop stop-color="white"/>
<stop offset="1" stop-color="#F0F0F0"/>
</linearGradient>
<linearGradient id="paint1_linear_3_1064" x1="315" y1="0.703125" x2="315" y2="318.292" gradientUnits="userSpaceOnUse">
<stop stop-color="#D02F44"/>
<stop offset="1" stop-color="#B12537"/>
</linearGradient>
<linearGradient id="paint2_linear_3_1064" x1="135" y1="0.703125" x2="135" y2="148.911" gradientUnits="userSpaceOnUse">
<stop stop-color="#46467F"/>
<stop offset="1" stop-color="#3C3C6D"/>
</linearGradient>
<linearGradient id="paint3_linear_3_1064" x1="106.429" y1="2.1145" x2="106.429" y2="107.977" gradientUnits="userSpaceOnUse">
<stop stop-color="white"/>
<stop offset="1" stop-color="#F0F0F0"/>
</linearGradient>
</defs>
</svg>
